<svg xmlns="http://www.w3.org/2000/svg" viewBox="0 0 1600 900" width="1600" height="900" role="img"> <defs> <linearGradient id="sky-cherry" x1="0" y1="0" x2="0" y2="1"> <stop offset="0%" stop-color="#F3DCC4"/> <stop offset="100%" stop-color="#E0B98C"/> </linearGradient> <pattern id="halftone-cherry" width="6" height="6" patternUnits="userSpaceOnUse"> <circle cx="1.5" cy="1.5" r="0.85" fill="#14110F" opacity="0.16"/> <circle cx="4.5" cy="4.5" r="0.85" fill="#14110F" opacity="0.16"/> </pattern> <linearGradient id="vig-cherry" x1="0" y1="0" x2="0" y2="1"> <stop offset="0%" stop-color="#14110F" stop-opacity="0.18"/> <stop offset="45%" stop-color="#14110F" stop-opacity="0"/> <stop offset="100%" stop-color="#14110F" stop-opacity="0.26"/> </linearGradient> </defs><rect width="1600" height="900" fill="url(#sky-cherry)"/><rect y="430" width="1600" height="470" fill="#8E7B4F"/><path d="M 800 430 L -720 900" stroke="#14110F" stroke-opacity="0.12" stroke-width="2" fill="none"/><path d="M 800 430 L -530 900" stroke="#14110F" stroke-opacity="0.12" stroke-width="2" fill="none"/><path d="M 800 430 L -340 900" stroke="#14110F" stroke-opacity="0.12" stroke-width="2" fill="none"/><path d="M 800 430 L -150 900" stroke="#14110F" stroke-opacity="0.12" stroke-width="2" fill="none"/><path d="M 800 430 L 40 900" stroke="#14110F" stroke-opacity="0.12" stroke-width="2" fill="none"/><path d="M 800 430 L 230 900" stroke="#14110F" stroke-opacity="0.12" stroke-width="2" fill="none"/><path d="M 800 430 L 420 900" stroke="#14110F" stroke-opacity="0.12" stroke-width="2" fill="none"/><path d="M 800 430 L 610 900" stroke="#14110F" stroke-opacity="0.12" stroke-width="2" fill="none"/><path d="M 800 430 L 800 900" stroke="#14110F" stroke-opacity="0.12" stroke-width="2" fill="none"/><path d="M 800 430 L 990 900" stroke="#14110F" stroke-opacity="0.12" stroke-width="2" fill="none"/><path d="M 800 430 L 1180 900" stroke="#14110F" stroke-opacity="0.12" stroke-width="2" fill="none"/><path d="M 800 430 L 1370 900" stroke="#14110F" stroke-opacity="0.12" stroke-width="2" fill="none"/><path d="M 800 430 L 1560 900" stroke="#14110F" stroke-opacity="0.12" stroke-width="2" fill="none"/><path d="M 800 430 L 1750 900" stroke="#14110F" stroke-opacity="0.12" stroke-width="2" fill="none"/><path d="M 800 430 L 1940 900" stroke="#14110F" stroke-opacity="0.12" stroke-width="2" fill="none"/><path d="M 800 430 L 2130 900" stroke="#14110F" stroke-opacity="0.12" stroke-width="2" fill="none"/><path d="M 800 430 L 2320 900" stroke="#14110F" stroke-opacity="0.12" stroke-width="2" fill="none"/><g opacity="0.55"> <rect x="70.68727272727273" y="409.2" width="4.08" height="40.800000000000004" fill="#5A4330"/> <ellipse cx="72.72727272727273" cy="409.2" rx="32.062" ry="27.880000000000003" fill="#3F6B48"/> <ellipse cx="61.57527272727273" cy="399.442" rx="17.285600000000002" ry="15.334000000000003" fill="#3F6B48" opacity="0.75"/></g><g opacity="0.55"> <rect x="216.14181818181817" y="409.2" width="4.08" height="40.800000000000004" fill="#5A4330"/> <ellipse cx="218.18181818181816" cy="409.2" rx="32.062" ry="27.880000000000003" fill="#3F6B48"/> <ellipse cx="207.02981818181814" cy="399.442" rx="17.285600000000002" ry="15.334000000000003" fill="#3F6B48" opacity="0.75"/></g><g opacity="0.55"> <rect x="361.5963636363636" y="409.2" width="4.08" height="40.800000000000004" fill="#5A4330"/> <ellipse cx="363.6363636363636" cy="409.2" rx="32.062" ry="27.880000000000003" fill="#3F6B48"/> <ellipse cx="352.48436363636364" cy="399.442" rx="17.285600000000002" ry="15.334000000000003" fill="#3F6B48" opacity="0.75"/></g><g opacity="0.55"> <rect x="507.05090909090904" y="409.2" width="4.08" height="40.800000000000004" fill="#5A4330"/> <ellipse cx="509.09090909090907" cy="409.2" rx="32.062" ry="27.880000000000003" fill="#3F6B48"/> <ellipse cx="497.9389090909091" cy="399.442" rx="17.285600000000002" ry="15.334000000000003" fill="#3F6B48" opacity="0.75"/></g><g opacity="0.55"> <rect x="652.5054545454547" y="409.2" width="4.08" height="40.800000000000004" fill="#5A4330"/> <ellipse cx="654.5454545454546" cy="409.2" rx="32.062" ry="27.880000000000003" fill="#3F6B48"/> <ellipse cx="643.3934545454546" cy="399.442" rx="17.285600000000002" ry="15.334000000000003" fill="#3F6B48" opacity="0.75"/></g><g opacity="0.55"> <rect x="797.96" y="409.2" width="4.08" height="40.800000000000004" fill="#5A4330"/> <ellipse cx="800" cy="409.2" rx="32.062" ry="27.880000000000003" fill="#3F6B48"/> <ellipse cx="788.848" cy="399.442" rx="17.285600000000002" ry="15.334000000000003" fill="#3F6B48" opacity="0.75"/></g><g opacity="0.55"> <rect x="943.4145454545455" y="409.2" width="4.08" height="40.800000000000004" fill="#5A4330"/> <ellipse cx="945.4545454545455" cy="409.2" rx="32.062" ry="27.880000000000003" fill="#3F6B48"/> <ellipse cx="934.3025454545455" cy="399.442" rx="17.285600000000002" ry="15.334000000000003" fill="#3F6B48" opacity="0.75"/></g><g opacity="0.55"> <rect x="1088.8690909090908" y="409.2" width="4.08" height="40.800000000000004" fill="#5A4330"/> <ellipse cx="1090.9090909090908" cy="409.2" rx="32.062" ry="27.880000000000003" fill="#3F6B48"/> <ellipse cx="1079.7570909090907" cy="399.442" rx="17.285600000000002" ry="15.334000000000003" fill="#3F6B48" opacity="0.75"/></g><g opacity="0.55"> <rect x="1234.3236363636363" y="409.2" width="4.08" height="40.800000000000004" fill="#5A4330"/> <ellipse cx="1236.3636363636363" cy="409.2" rx="32.062" ry="27.880000000000003" fill="#3F6B48"/> <ellipse cx="1225.2116363636362" cy="399.442" rx="17.285600000000002" ry="15.334000000000003" fill="#3F6B48" opacity="0.75"/></g><g opacity="0.55"> <rect x="1379.7781818181818" y="409.2" width="4.08" height="40.800000000000004" fill="#5A4330"/> <ellipse cx="1381.8181818181818" cy="409.2" rx="32.062" ry="27.880000000000003" fill="#3F6B48"/> <ellipse cx="1370.6661818181817" cy="399.442" rx="17.285600000000002" ry="15.334000000000003" fill="#3F6B48" opacity="0.75"/></g><g opacity="0.55"> <rect x="1525.2327272727273" y="409.2" width="4.08" height="40.800000000000004" fill="#5A4330"/> <ellipse cx="1527.2727272727273" cy="409.2" rx="32.062" ry="27.880000000000003" fill="#3F6B48"/> <ellipse cx="1516.1207272727272" cy="399.442" rx="17.285600000000002" ry="15.334000000000003" fill="#3F6B48" opacity="0.75"/></g><g opacity="0.72"> <rect x="96.7" y="454" width="6.6000000000000005" height="66" fill="#5A4330"/> <ellipse cx="100" cy="454" rx="51.864999999999995" ry="45.1" fill="#3F6B48"/> <ellipse cx="81.96" cy="438.215" rx="27.962" ry="24.805000000000003" fill="#3F6B48" opacity="0.75"/><circle cx="100.0" cy="485.6" r="2.8" fill="#8E2A2A"/><circle cx="116.7" cy="423.9" r="2.8" fill="#8E2A2A"/><circle cx="130.4" cy="479.8" r="2.8" fill="#8E2A2A"/><circle cx="138.8" cy="434.9" r="2.8" fill="#8E2A2A"/><circle cx="140.3" cy="464.6" r="2.8" fill="#8E2A2A"/></g><g opacity="0.72"> <rect x="296.7" y="454" width="6.6000000000000005" height="66" fill="#5A4330"/> <ellipse cx="300" cy="454" rx="51.864999999999995" ry="45.1" fill="#3F6B48"/> <ellipse cx="281.96" cy="438.215" rx="27.962" ry="24.805000000000003" fill="#3F6B48" opacity="0.75"/><circle cx="334.2" cy="471.1" r="2.8" fill="#8E2A2A"/><circle cx="340.2" cy="429.7" r="2.8" fill="#8E2A2A"/><circle cx="339.1" cy="483.2" r="2.8" fill="#8E2A2A"/><circle cx="331.1" cy="422.5" r="2.8" fill="#8E2A2A"/><circle cx="317.6" cy="484.8" r="2.8" fill="#8E2A2A"/></g><g opacity="0.72"> <rect x="496.7" y="454" width="6.6000000000000005" height="66" fill="#5A4330"/> <ellipse cx="500" cy="454" rx="51.864999999999995" ry="45.1" fill="#3F6B48"/> <ellipse cx="481.96" cy="438.215" rx="27.962" ry="24.805000000000003" fill="#3F6B48" opacity="0.75"/><circle cx="536.9" cy="440.9" r="2.8" fill="#8E2A2A"/><circle cx="526.7" cy="457.9" r="2.8" fill="#8E2A2A"/><circle cx="511.8" cy="459.8" r="2.8" fill="#8E2A2A"/><circle cx="494.8" cy="439.1" r="2.8" fill="#8E2A2A"/><circle cx="478.7" cy="476.6" r="2.8" fill="#8E2A2A"/></g><g opacity="0.72"> <rect x="696.7" y="454" width="6.6000000000000005" height="66" fill="#5A4330"/> <ellipse cx="700" cy="454" rx="51.864999999999995" ry="45.1" fill="#3F6B48"/> <ellipse cx="681.96" cy="438.215" rx="27.962" ry="24.805000000000003" fill="#3F6B48" opacity="0.75"/><circle cx="705.7" cy="422.7" r="2.8" fill="#8E2A2A"/><circle cx="688.7" cy="482.4" r="2.8" fill="#8E2A2A"/><circle cx="673.7" cy="431.0" r="2.8" fill="#8E2A2A"/><circle cx="663.3" cy="469.4" r="2.8" fill="#8E2A2A"/><circle cx="659.4" cy="447.7" r="2.8" fill="#8E2A2A"/></g><g opacity="0.72"> <rect x="896.7" y="454" width="6.6000000000000005" height="66" fill="#5A4330"/> <ellipse cx="900" cy="454" rx="51.864999999999995" ry="45.1" fill="#3F6B48"/> <ellipse cx="881.96" cy="438.215" rx="27.962" ry="24.805000000000003" fill="#3F6B48" opacity="0.75"/><circle cx="869.3" cy="433.4" r="2.8" fill="#8E2A2A"/><circle cx="861.1" cy="480.9" r="2.8" fill="#8E2A2A"/><circle cx="859.8" cy="423.4" r="2.8" fill="#8E2A2A"/><circle cx="865.6" cy="485.5" r="2.8" fill="#8E2A2A"/><circle cx="877.4" cy="424.6" r="2.8" fill="#8E2A2A"/></g><g opacity="0.72"> <rect x="1096.7" y="454" width="6.6000000000000005" height="66" fill="#5A4330"/> <ellipse cx="1100" cy="454" rx="51.864999999999995" ry="45.1" fill="#3F6B48"/> <ellipse cx="1081.96" cy="438.215" rx="27.962" ry="24.805000000000003" fill="#3F6B48" opacity="0.75"/><circle cx="1061.1" cy="463.0" r="2.8" fill="#8E2A2A"/><circle cx="1069.2" cy="454.6" r="2.8" fill="#8E2A2A"/><circle cx="1082.8" cy="443.9" r="2.8" fill="#8E2A2A"/><circle cx="1099.5" cy="472.7" r="2.8" fill="#8E2A2A"/><circle cx="1116.2" cy="428.5" r="2.8" fill="#8E2A2A"/></g><g opacity="0.72"> <rect x="1296.7" y="454" width="6.6000000000000005" height="66" fill="#5A4330"/> <ellipse cx="1300" cy="454" rx="51.864999999999995" ry="45.1" fill="#3F6B48"/> <ellipse cx="1281.96" cy="438.215" rx="27.962" ry="24.805000000000003" fill="#3F6B48" opacity="0.75"/><circle cx="1288.7" cy="484.3" r="2.8" fill="#8E2A2A"/><circle cx="1305.7" cy="427.8" r="2.8" fill="#8E2A2A"/><circle cx="1321.7" cy="473.7" r="2.8" fill="#8E2A2A"/><circle cx="1333.9" cy="442.7" r="2.8" fill="#8E2A2A"/><circle cx="1340.1" cy="455.9" r="2.8" fill="#8E2A2A"/></g><g opacity="0.72"> <rect x="1496.7" y="454" width="6.6000000000000005" height="66" fill="#5A4330"/> <ellipse cx="1500" cy="454" rx="51.864999999999995" ry="45.1" fill="#3F6B48"/> <ellipse cx="1481.96" cy="438.215" rx="27.962" ry="24.805000000000003" fill="#3F6B48" opacity="0.75"/><circle cx="1526.7" cy="477.8" r="2.8" fill="#8E2A2A"/><circle cx="1536.9" cy="425.0" r="2.8" fill="#8E2A2A"/><circle cx="1540.6" cy="485.4" r="2.8" fill="#8E2A2A"/><circle cx="1537.1" cy="423.1" r="2.8" fill="#8E2A2A"/><circle cx="1527.1" cy="481.5" r="2.8" fill="#8E2A2A"/></g><g opacity="0.88"> <rect x="68.23333333333332" y="528" width="10.2" height="102" fill="#5A4330"/> <ellipse cx="73.33333333333331" cy="528" rx="80.155" ry="69.7" fill="#3F6B48"/> <ellipse cx="45.45333333333331" cy="503.605" rx="43.214" ry="38.33500000000001" fill="#3F6B48" opacity="0.75"/><circle cx="73.3" cy="576.8" r="4.3" fill="#8E2A2A"/><circle cx="99.1" cy="481.5" r="4.3" fill="#8E2A2A"/><circle cx="120.3" cy="567.9" r="4.3" fill="#8E2A2A"/><circle cx="133.3" cy="498.5" r="4.3" fill="#8E2A2A"/><circle cx="135.6" cy="544.4" r="4.3" fill="#8E2A2A"/><circle cx="126.9" cy="526.2" r="4.3" fill="#8E2A2A"/><circle cx="108.8" cy="515.0" r="4.3" fill="#8E2A2A"/><circle cx="84.4" cy="554.6" r="4.3" fill="#8E2A2A"/></g><g opacity="0.88"> <rect x="334.9" y="528" width="10.2" height="102" fill="#5A4330"/> <ellipse cx="340" cy="528" rx="80.155" ry="69.7" fill="#3F6B48"/> <ellipse cx="312.12" cy="503.605" rx="43.214" ry="38.33500000000001" fill="#3F6B48" opacity="0.75"/><circle cx="392.8" cy="554.4" r="4.3" fill="#8E2A2A"/><circle cx="402.1" cy="490.5" r="4.3" fill="#8E2A2A"/><circle cx="400.4" cy="573.2" r="4.3" fill="#8E2A2A"/><circle cx="388.0" cy="479.4" r="4.3" fill="#8E2A2A"/><circle cx="367.2" cy="575.5" r="4.3" fill="#8E2A2A"/><circle cx="341.5" cy="486.0" r="4.3" fill="#8E2A2A"/><circle cx="315.6" cy="560.5" r="4.3" fill="#8E2A2A"/><circle cx="294.0" cy="508.0" r="4.3" fill="#8E2A2A"/></g><g opacity="0.88"> <rect x="601.5666666666667" y="528" width="10.2" height="102" fill="#5A4330"/> <ellipse cx="606.6666666666667" cy="528" rx="80.155" ry="69.7" fill="#3F6B48"/> <ellipse cx="578.7866666666667" cy="503.605" rx="43.214" ry="38.33500000000001" fill="#3F6B48" opacity="0.75"/><circle cx="663.7" cy="507.7" r="4.3" fill="#8E2A2A"/><circle cx="647.9" cy="534.0" r="4.3" fill="#8E2A2A"/><circle cx="624.9" cy="536.9" r="4.3" fill="#8E2A2A"/><circle cx="598.6" cy="505.0" r="4.3" fill="#8E2A2A"/><circle cx="573.8" cy="562.9" r="4.3" fill="#8E2A2A"/><circle cx="554.7" cy="484.4" r="4.3" fill="#8E2A2A"/><circle cx="544.9" cy="576.2" r="4.3" fill="#8E2A2A"/><circle cx="545.9" cy="479.7" r="4.3" fill="#8E2A2A"/></g><g opacity="0.88"> <rect x="868.2333333333333" y="528" width="10.2" height="102" fill="#5A4330"/> <ellipse cx="873.3333333333334" cy="528" rx="80.155" ry="69.7" fill="#3F6B48"/> <ellipse cx="845.4533333333334" cy="503.605" rx="43.214" ry="38.33500000000001" fill="#3F6B48" opacity="0.75"/><circle cx="882.2" cy="479.7" r="4.3" fill="#8E2A2A"/><circle cx="855.9" cy="572.0" r="4.3" fill="#8E2A2A"/><circle cx="832.7" cy="492.5" r="4.3" fill="#8E2A2A"/><circle cx="816.6" cy="551.8" r="4.3" fill="#8E2A2A"/><circle cx="810.6" cy="518.2" r="4.3" fill="#8E2A2A"/><circle cx="815.7" cy="522.9" r="4.3" fill="#8E2A2A"/><circle cx="830.9" cy="547.5" r="4.3" fill="#8E2A2A"/><circle cx="853.6" cy="495.9" r="4.3" fill="#8E2A2A"/></g><g opacity="0.88"> <rect x="1134.9" y="528" width="10.2" height="102" fill="#5A4330"/> <ellipse cx="1140" cy="528" rx="80.155" ry="69.7" fill="#3F6B48"/> <ellipse cx="1112.12" cy="503.605" rx="43.214" ry="38.33500000000001" fill="#3F6B48" opacity="0.75"/><circle cx="1092.5" cy="496.1" r="4.3" fill="#8E2A2A"/><circle cx="1079.9" cy="569.6" r="4.3" fill="#8E2A2A"/><circle cx="1077.8" cy="480.7" r="4.3" fill="#8E2A2A"/><circle cx="1086.8" cy="576.7" r="4.3" fill="#8E2A2A"/><circle cx="1105.1" cy="482.5" r="4.3" fill="#8E2A2A"/><circle cx="1129.6" cy="566.1" r="4.3" fill="#8E2A2A"/><circle cx="1156.0" cy="500.9" r="4.3" fill="#8E2A2A"/><circle cx="1179.5" cy="541.6" r="4.3" fill="#8E2A2A"/></g><g opacity="0.88"> <rect x="1401.5666666666666" y="528" width="10.2" height="102" fill="#5A4330"/> <ellipse cx="1406.6666666666665" cy="528" rx="80.155" ry="69.7" fill="#3F6B48"/> <ellipse cx="1378.7866666666664" cy="503.605" rx="43.214" ry="38.33500000000001" fill="#3F6B48" opacity="0.75"/><circle cx="1346.5" cy="541.8" r="4.3" fill="#8E2A2A"/><circle cx="1359.1" cy="528.9" r="4.3" fill="#8E2A2A"/><circle cx="1380.2" cy="512.4" r="4.3" fill="#8E2A2A"/><circle cx="1405.9" cy="556.9" r="4.3" fill="#8E2A2A"/><circle cx="1431.7" cy="488.6" r="4.3" fill="#8E2A2A"/><circle cx="1453.1" cy="574.2" r="4.3" fill="#8E2A2A"/><circle cx="1466.3" cy="479.2" r="4.3" fill="#8E2A2A"/><circle cx="1469.0" cy="574.8" r="4.3" fill="#8E2A2A"/></g><g opacity="1"> <rect x="132.5" y="630" width="15" height="150" fill="#5A4330"/> <ellipse cx="140" cy="630" rx="117.87499999999999" ry="102.5" fill="#3F6B48"/> <ellipse cx="99" cy="594.125" rx="63.55" ry="56.37500000000001" fill="#3F6B48" opacity="0.75"/><circle cx="140.0" cy="701.8" r="6.3" fill="#8E2A2A"/><circle cx="177.9" cy="561.6" r="6.3" fill="#8E2A2A"/><circle cx="209.1" cy="688.7" r="6.3" fill="#8E2A2A"/><circle cx="228.1" cy="586.6" r="6.3" fill="#8E2A2A"/><circle cx="231.6" cy="654.2" r="6.3" fill="#8E2A2A"/><circle cx="218.8" cy="627.4" r="6.3" fill="#8E2A2A"/><circle cx="192.2" cy="610.9" r="6.3" fill="#8E2A2A"/><circle cx="156.3" cy="669.1" r="6.3" fill="#8E2A2A"/><circle cx="117.5" cy="574.5" r="6.3" fill="#8E2A2A"/><circle cx="82.8" cy="696.6" r="6.3" fill="#8E2A2A"/><circle cx="58.1" cy="558.4" r="6.3" fill="#8E2A2A"/></g><g opacity="1"> <rect x="532.5" y="630" width="15" height="150" fill="#5A4330"/> <ellipse cx="540" cy="630" rx="117.87499999999999" ry="102.5" fill="#3F6B48"/> <ellipse cx="499" cy="594.125" rx="63.55" ry="56.37500000000001" fill="#3F6B48" opacity="0.75"/><circle cx="617.6" cy="668.8" r="6.3" fill="#8E2A2A"/><circle cx="631.3" cy="574.8" r="6.3" fill="#8E2A2A"/><circle cx="628.8" cy="696.5" r="6.3" fill="#8E2A2A"/><circle cx="610.6" cy="558.5" r="6.3" fill="#8E2A2A"/><circle cx="579.9" cy="699.9" r="6.3" fill="#8E2A2A"/><circle cx="542.3" cy="568.2" r="6.3" fill="#8E2A2A"/><circle cx="504.2" cy="677.8" r="6.3" fill="#8E2A2A"/><circle cx="472.4" cy="600.5" r="6.3" fill="#8E2A2A"/><circle cx="452.6" cy="638.3" r="6.3" fill="#8E2A2A"/><circle cx="448.2" cy="643.6" r="6.3" fill="#8E2A2A"/><circle cx="460.0" cy="595.8" r="6.3" fill="#8E2A2A"/></g><g opacity="1"> <rect x="932.5" y="630" width="15" height="150" fill="#5A4330"/> <ellipse cx="940" cy="630" rx="117.87499999999999" ry="102.5" fill="#3F6B48"/> <ellipse cx="899" cy="594.125" rx="63.55" ry="56.37500000000001" fill="#3F6B48" opacity="0.75"/><circle cx="1023.9" cy="600.1" r="6.3" fill="#8E2A2A"/><circle cx="1000.7" cy="638.8" r="6.3" fill="#8E2A2A"/><circle cx="966.8" cy="643.2" r="6.3" fill="#8E2A2A"/><circle cx="928.2" cy="596.2" r="6.3" fill="#8E2A2A"/><circle cx="891.6" cy="681.4" r="6.3" fill="#8E2A2A"/><circle cx="863.6" cy="565.9" r="6.3" fill="#8E2A2A"/><circle cx="849.1" cy="700.8" r="6.3" fill="#8E2A2A"/><circle cx="850.7" cy="559.0" r="6.3" fill="#8E2A2A"/><circle cx="868.0" cy="694.5" r="6.3" fill="#8E2A2A"/><circle cx="898.0" cy="578.1" r="6.3" fill="#8E2A2A"/><circle cx="935.5" cy="664.6" r="6.3" fill="#8E2A2A"/></g><g opacity="1"> <rect x="1332.5" y="630" width="15" height="150" fill="#5A4330"/> <ellipse cx="1340" cy="630" rx="117.87499999999999" ry="102.5" fill="#3F6B48"/> <ellipse cx="1299" cy="594.125" rx="63.55" ry="56.37500000000001" fill="#3F6B48" opacity="0.75"/><circle cx="1353.0" cy="559.0" r="6.3" fill="#8E2A2A"/><circle cx="1314.3" cy="694.7" r="6.3" fill="#8E2A2A"/><circle cx="1280.2" cy="577.8" r="6.3" fill="#8E2A2A"/><circle cx="1256.6" cy="664.9" r="6.3" fill="#8E2A2A"/><circle cx="1247.8" cy="615.6" r="6.3" fill="#8E2A2A"/><circle cx="1255.2" cy="622.5" r="6.3" fill="#8E2A2A"/><circle cx="1277.6" cy="658.7" r="6.3" fill="#8E2A2A"/><circle cx="1311.1" cy="582.8" r="6.3" fill="#8E2A2A"/><circle cx="1349.6" cy="691.3" r="6.3" fill="#8E2A2A"/><circle cx="1386.5" cy="560.3" r="6.3" fill="#8E2A2A"/><circle cx="1415.1" cy="701.6" r="6.3" fill="#8E2A2A"/></g><rect width="1600" height="900" fill="url(#halftone-cherry)"/><rect width="1600" height="900" fill="url(#vig-cherry)"/></svg>